Coordinates
version=1
nRows=11
nColumns=40
inDegrees=yes

Units are S.I. units (second, meters, Newtons, ...)
If the header above contains a line with 'inDegrees', this indicates whether rotational values are in degrees (yes) or radians (no).

endheader
time	pelvis_tilt	pelvis_list	pelvis_rotation	pelvis_tx	pelvis_ty	pelvis_tz	hip_flexion_r	hip_adduction_r	hip_rotation_r	knee_angle_r	knee_angle_r_beta	ankle_angle_r	subtalar_angle_r	mtp_angle_r	hip_flexion_l	hip_adduction_l	hip_rotation_l	knee_angle_l	knee_angle_l_beta	ankle_angle_l	subtalar_angle_l	mtp_angle_l	lumbar_extension	lumbar_bending	lumbar_rotation	arm_flex_r	arm_add_r	arm_rot_r	elbow_flex_r	pro_sup_r	wrist_flex_r	wrist_dev_r	arm_flex_l	arm_add_l	arm_rot_l	elbow_flex_l	pro_sup_l	wrist_flex_l	wrist_dev_l
      4.45000000	    -22.14062327	      4.23681288	      4.24980701	     -0.46247611	      0.76693799	     -0.72162513	     72.98538588	     -4.10238997	     -6.38455103	     79.02868730	      1.37931080	     16.07408582	      0.00000000	      0.00000000	     88.06068954	     -5.32754769	    -15.79814014	     54.38955314	      0.94927678	    -17.81880200	      0.00000000	      0.00000000	     -6.47613998	     -1.61879129	     -5.00320355	     89.96651925	      3.01096444	      1.10178220	     49.08019935	     64.78144722	      0.00000000	      0.00000000	     89.94806262	     -9.54700207	     12.41841523	     47.87306766	     72.30957912	      0.00000000	      0.00000000
      4.45500000	    -22.14915674	      4.27349684	      4.28574362	     -0.46264265	      0.76623783	     -0.72168343	     73.09317416	     -4.16029321	     -6.36058459	     79.18234105	      1.38199256	     16.04747936	      0.00000000	      0.00000000	     88.13507190	     -5.28630891	    -15.84240319	     54.50888488	      0.95135951	    -17.75759359	      0.00000000	      0.00000000	     -6.50614438	     -1.64564853	     -5.10644960	     89.96667313	      3.00208138	      0.00456199	     48.71383702	     78.05608965	      0.00000000	      0.00000000	     89.94822091	     -9.61956174	     11.46272556	     47.68722106	     83.21107895	      0.00000000	      0.00000000
      4.46000000	    -22.15864510	      4.28674610	      4.32101070	     -0.46290222	      0.76551977	     -0.72173148	     73.20250408	     -4.19301493	     -6.34385564	     79.32762727	      1.38452828	     16.09133689	      0.00000000	      0.00000000	     88.20689946	     -5.25042728	    -15.88990894	     54.55920965	      0.95223785	    -17.82952682	      0.00000000	      0.00000000	     -6.54271873	     -1.61425058	     -5.21533217	     89.96675232	      3.15438774	      0.61992333	     48.92841152	     71.07916214	      0.00000000	      0.00000000	     89.94832864	     -9.71457345	     11.38479281	     47.75864625	     83.65395626	      0.00000000	      0.00000000
      4.46500000	    -22.18255713	      4.26398922	      4.32917991	     -0.46308953	      0.76481890	     -0.72176204	     73.31739615	     -4.18768981	     -6.34724419	     79.45075824	      1.38667732	     16.14860850	      0.00000000	      0.00000000	     88.28811974	     -5.23942963	    -15.89298370	     54.59237290	      0.95281665	    -17.88540129	      0.00000000	      0.00000000	     -6.56638410	     -1.55667479	     -5.12813867	     89.96680329	      3.11063394	      0.66168388	     49.01860211	     70.13088921	      0.00000000	      0.00000000	     89.94835588	     -9.60395329	     11.26536221	     47.78819704	     83.66868635	      0.00000000	      0.00000000
      4.47000000	    -22.19412511	      4.25273765	      4.34187505	     -0.46329894	      0.76409332	     -0.72175962	     73.42727623	     -4.19440155	     -6.35960097	     79.59810024	      1.38924893	     16.17308107	      0.00000000	      0.00000000	     88.37903958	     -5.25309353	    -15.95048910	     54.68706439	      0.95446933	    -17.98523381	      0.00000000	      0.00000000	     -6.59068900	     -1.52601540	     -5.15186973	     89.96680456	      3.14163535	      0.88459888	     49.15966938	     67.42631035	      0.00000000	      0.00000000	     89.94851312	     -9.63742708	     11.21800459	     47.86864135	     83.75389739	      0.00000000	      0.00000000
      4.47500000	    -22.20429049	      4.26385032	      4.35479453	     -0.46353695	      0.76332853	     -0.72181542	     73.53257050	     -4.22951585	     -6.36690562	     79.74929033	      1.39188769	     16.34165372	      0.00000000	      0.00000000	     88.44998522	     -5.24654001	    -16.00266209	     54.72367503	      0.95510831	    -18.08012373	      0.00000000	      0.00000000	     -6.57754398	     -1.57562473	     -5.08723704	     89.96669131	      3.07471117	      1.37052235	     49.52635021	     60.02168186	      0.00000000	      0.00000000	     89.94867932	     -9.35523777	     12.09735871	     48.01943431	     72.23129604	      0.00000000	      0.00000000
      4.48000000	    -22.22945445	      4.28231428	      4.36110884	     -0.46368342	      0.76260590	     -0.72184397	     73.67399273	     -4.27144420	     -6.37720415	     79.90782091	      1.39465457	     16.08744309	      0.00000000	      0.00000000	     88.53775023	     -5.26806415	    -16.13612697	     54.81070681	      0.95662730	    -18.14779452	      0.00000000	      0.00000000	     -6.60650690	     -1.48443067	     -5.30614500	     89.96687594	      3.43744917	      1.52139136	     49.56158469	     58.65369219	      0.00000000	      0.00000000	     89.94856750	     -9.95378438	     12.54592462	     48.33948152	     71.84221552	      0.00000000	      0.00000000
      4.48500000	    -22.26794710	      4.30680450	      4.34315627	     -0.46396486	      0.76168016	     -0.72177627	     73.81905691	     -4.25245004	     -6.32168059	     80.06287142	      1.39736071	     16.37252025	      0.00000000	      0.00000000	     88.64192125	     -5.29301275	    -16.17016808	     54.84741964	      0.95726806	    -18.11207135	      0.00000000	      0.00000000	     -6.73959415	     -1.70689574	     -4.56694942	     89.96614537	     -0.53224626	      6.65757140	     50.86442848	     57.84724841	      0.00000000	      0.00000000	     89.94993267	     -8.72295729	     12.13426891	     48.38899171	     70.39539798	      0.00000000	      0.00000000
      4.49000000	    -22.28244491	      4.33944086	      4.29140601	     -0.46404645	      0.76085309	     -0.72157724	     73.93616504	     -4.22113900	     -6.28988733	     80.22333905	      1.40016140	     16.41144105	      0.00000000	      0.00000000	     88.72002350	     -5.38187428	    -16.28110317	     54.93470727	      0.95879152	    -18.04932475	      0.00000000	      0.00000000	     -6.91410442	     -1.89619686	     -3.80625143	     89.96568709	     -4.41851785	      9.85431985	     51.86179594	     76.63516023	      0.00000000	      0.00000000	     89.95117616	     -7.56886010	     10.35961640	     48.20182534	     83.19621729	      0.00000000	      0.00000000
      4.49500000	    -22.34161917	      4.32769130	      4.27375165	     -0.46426752	      0.76008981	     -0.72155452	     74.09610735	     -4.19723292	     -6.27042367	     80.35960540	      1.40253970	     16.47630714	      0.00000000	      0.00000000	     88.84655534	     -5.41384954	    -16.30200405	     54.96820673	      0.95937619	    -18.14896790	      0.00000000	      0.00000000	     -6.91244107	     -1.82009016	     -3.72765448	     89.96572794	     -4.33656325	     10.03069776	     52.12748471	     73.00835550	      0.00000000	      0.00000000	     89.95119446	     -7.57677422	     10.72013717	     48.36811949	     79.03700123	      0.00000000	      0.00000000
      4.50000000	    -22.31177135	      4.21689105	      4.22787652	     -0.46438973	      0.75975134	     -0.72169098	     74.10258616	     -4.16879318	     -6.42039780	     80.40789204	      1.40338246	     16.45250642	      0.00000000	      0.00000000	     88.86901196	     -5.46461661	    -16.22658940	     54.98580867	      0.95968340	    -18.08604893	      0.00000000	      0.00000000	     -6.60906474	     -1.42242829	     -4.92845881	     89.96699573	      3.10785045	      0.35047462	     49.24646626	     72.52414222	      0.00000000	      0.00000000	     89.94890980	     -9.28064518	     10.93107057	     48.05606971	     79.64840221	      0.00000000	      0.00000000
